Normalized EMG Linear Envelopes
nRows=59
nColumns=17

endheader
time	        VM	        VL	        RF	       GRA	        TA	   ADDLONG	   SEMIMEM	      BFLH	        GM	        GL	       TFL	   GLUTMAX	   GLUTMED	      PIRI	    OBTINT	        QF	
1.875	  0.407329	  0.259525	  0.038558	  0.211615	  0.214573	  0.050918	  0.290709	  0.486566	  0.377145	  0.131086	  0.029258	  0.402837	  0.202263	  0.604839	  1.893053	  1.317635	
1.8755	  0.410427	  0.261625	  0.038982	  0.210521	  0.212374	  0.050839	  0.286730	  0.482652	  0.377046	  0.132728	  0.029694	  0.404333	  0.202216	  0.603197	  1.896647	  1.324272	
1.876	  0.413506	  0.263713	  0.039408	  0.209448	  0.210169	  0.050761	  0.282805	  0.478750	  0.376966	  0.134386	  0.030132	  0.405787	  0.202194	  0.601563	  1.900559	  1.330675	
1.8765	  0.416563	  0.265790	  0.039833	  0.208397	  0.207959	  0.050684	  0.278937	  0.474864	  0.376905	  0.136062	  0.030573	  0.407197	  0.202197	  0.599937	  1.904792	  1.336840	
1.877	  0.419597	  0.267853	  0.040259	  0.207368	  0.205745	  0.050608	  0.275127	  0.470998	  0.376864	  0.137753	  0.031017	  0.408563	  0.202227	  0.598321	  1.909346	  1.342766	
1.8775	  0.422606	  0.269903	  0.040686	  0.206360	  0.203529	  0.050533	  0.271375	  0.467155	  0.376844	  0.139461	  0.031464	  0.409885	  0.202282	  0.596714	  1.914226	  1.348449	
1.878	  0.425588	  0.271938	  0.041112	  0.205374	  0.201313	  0.050458	  0.267683	  0.463338	  0.376845	  0.141185	  0.031913	  0.411161	  0.202362	  0.595118	  1.919431	  1.353887	
1.8785	  0.428542	  0.273957	  0.041538	  0.204411	  0.199096	  0.050384	  0.264051	  0.459550	  0.376867	  0.142924	  0.032364	  0.412392	  0.202467	  0.593532	  1.924963	  1.359078	
1.879	  0.431465	  0.275961	  0.041964	  0.203470	  0.196882	  0.050310	  0.260482	  0.455793	  0.376910	  0.144678	  0.032817	  0.413577	  0.202597	  0.591957	  1.930823	  1.364020	
1.8795	  0.434356	  0.277949	  0.042390	  0.202551	  0.194671	  0.050237	  0.256975	  0.452071	  0.376975	  0.146446	  0.033272	  0.414714	  0.202752	  0.590393	  1.937010	  1.368714	
1.88	  0.437212	  0.279921	  0.042815	  0.201655	  0.192464	  0.050163	  0.253531	  0.448386	  0.377062	  0.148229	  0.033728	  0.415805	  0.202933	  0.588841	  1.943525	  1.373160	
1.8805	  0.440032	  0.281876	  0.043240	  0.200781	  0.190263	  0.050089	  0.250152	  0.444741	  0.377170	  0.150026	  0.034186	  0.416847	  0.203138	  0.587299	  1.950366	  1.377357	
1.881	  0.442813	  0.283814	  0.043664	  0.199930	  0.188069	  0.050015	  0.246838	  0.441138	  0.377300	  0.151836	  0.034646	  0.417841	  0.203369	  0.585771	  1.957532	  1.381306	
1.8815	  0.445555	  0.285736	  0.044088	  0.199101	  0.185883	  0.049941	  0.243589	  0.437580	  0.377452	  0.153659	  0.035106	  0.418786	  0.203626	  0.584256	  1.965021	  1.385006	
1.882	  0.448255	  0.287641	  0.044511	  0.198293	  0.183706	  0.049866	  0.240407	  0.434069	  0.377625	  0.155495	  0.035568	  0.419680	  0.203907	  0.582755	  1.972831	  1.388458	
1.8825	  0.450913	  0.289530	  0.044932	  0.197508	  0.181538	  0.049790	  0.237292	  0.430606	  0.377821	  0.157344	  0.036030	  0.420525	  0.204215	  0.581271	  1.980959	  1.391660	
1.883	  0.453526	  0.291401	  0.045353	  0.196745	  0.179382	  0.049714	  0.234245	  0.427195	  0.378039	  0.159205	  0.036493	  0.421319	  0.204548	  0.579804	  1.989403	  1.394612	
1.8835	  0.456093	  0.293256	  0.045772	  0.196004	  0.177238	  0.049637	  0.231266	  0.423836	  0.378279	  0.161078	  0.036956	  0.422063	  0.204907	  0.578357	  1.998158	  1.397314	
1.884	  0.458612	  0.295093	  0.046190	  0.195284	  0.175107	  0.049560	  0.228356	  0.420533	  0.378544	  0.162963	  0.037419	  0.422754	  0.205292	  0.576929	  2.007222	  1.399765	
1.8845	  0.461082	  0.296914	  0.046606	  0.194585	  0.172990	  0.049481	  0.225516	  0.417285	  0.378832	  0.164860	  0.037883	  0.423394	  0.205701	  0.575522	  2.016590	  1.401966	
1.885	  0.463501	  0.298719	  0.047021	  0.193909	  0.170888	  0.049402	  0.222745	  0.414096	  0.379146	  0.166768	  0.038346	  0.423982	  0.206137	  0.574136	  2.026258	  1.403916	
1.8855	  0.465867	  0.300507	  0.047434	  0.193254	  0.168802	  0.049322	  0.220046	  0.410965	  0.379486	  0.168686	  0.038808	  0.424517	  0.206597	  0.572774	  2.036221	  1.405615	
1.886	  0.468178	  0.302278	  0.047845	  0.192620	  0.166732	  0.049240	  0.217417	  0.407896	  0.379852	  0.170616	  0.039270	  0.424998	  0.207082	  0.571435	  2.046473	  1.407067	
1.8865	  0.470432	  0.304034	  0.048253	  0.192009	  0.164679	  0.049158	  0.214860	  0.404889	  0.380247	  0.172556	  0.039732	  0.425425	  0.207591	  0.570120	  2.057009	  1.408274	
1.887	  0.472628	  0.305773	  0.048660	  0.191418	  0.162644	  0.049075	  0.212375	  0.401945	  0.380671	  0.174506	  0.040192	  0.425796	  0.208124	  0.568831	  2.067822	  1.409239	
1.8875	  0.474765	  0.307496	  0.049065	  0.190848	  0.160628	  0.048990	  0.209961	  0.399067	  0.381126	  0.176466	  0.040650	  0.426112	  0.208681	  0.567569	  2.078904	  1.409967	
1.888	  0.476841	  0.309202	  0.049467	  0.190300	  0.158631	  0.048904	  0.207620	  0.396255	  0.381613	  0.178437	  0.041108	  0.426371	  0.209262	  0.566336	  2.090251	  1.410462	
1.8885	  0.478857	  0.310892	  0.049867	  0.189772	  0.156654	  0.048816	  0.205351	  0.393511	  0.382134	  0.180417	  0.041563	  0.426573	  0.209865	  0.565134	  2.101853	  1.410728	
1.889	  0.480811	  0.312565	  0.050265	  0.189264	  0.154697	  0.048728	  0.203154	  0.390837	  0.382690	  0.182406	  0.042017	  0.426716	  0.210492	  0.563964	  2.113703	  1.410768	
1.8895	  0.482702	  0.314221	  0.050661	  0.188777	  0.152761	  0.048638	  0.201030	  0.388233	  0.383282	  0.184405	  0.042468	  0.426801	  0.211141	  0.562829	  2.125795	  1.410587	
1.89	  0.484531	  0.315858	  0.051054	  0.188309	  0.150847	  0.048546	  0.198980	  0.385700	  0.383910	  0.186414	  0.042917	  0.426826	  0.211813	  0.561731	  2.138119	  1.410188	
1.8905	  0.486296	  0.317478	  0.051445	  0.187861	  0.148954	  0.048454	  0.197002	  0.383241	  0.384577	  0.188431	  0.043363	  0.426792	  0.212507	  0.560672	  2.150669	  1.409576	
1.891	  0.487996	  0.319080	  0.051834	  0.187433	  0.147084	  0.048360	  0.195097	  0.380855	  0.385283	  0.190457	  0.043806	  0.426696	  0.213224	  0.559655	  2.163436	  1.408753	
1.8915	  0.489631	  0.320663	  0.052220	  0.187024	  0.145237	  0.048265	  0.193266	  0.378544	  0.386029	  0.192491	  0.044246	  0.426539	  0.213962	  0.558681	  2.176413	  1.407723	
1.892	  0.491200	  0.322228	  0.052604	  0.186634	  0.143413	  0.048169	  0.191508	  0.376308	  0.386816	  0.194534	  0.044683	  0.426320	  0.214722	  0.557753	  2.189593	  1.406492	
1.8925	  0.492703	  0.323774	  0.052986	  0.186264	  0.141612	  0.048072	  0.189823	  0.374149	  0.387644	  0.196585	  0.045117	  0.426037	  0.215504	  0.556874	  2.202968	  1.405061	
1.893	  0.494138	  0.325301	  0.053366	  0.185914	  0.139835	  0.047975	  0.188212	  0.372066	  0.388514	  0.198644	  0.045546	  0.425690	  0.216306	  0.556046	  2.216530	  1.403437	
1.8935	  0.495506	  0.326809	  0.053743	  0.185584	  0.138082	  0.047877	  0.186675	  0.370060	  0.389426	  0.200711	  0.045973	  0.425277	  0.217128	  0.555270	  2.230271	  1.401622	
1.894	  0.496806	  0.328298	  0.054118	  0.185274	  0.136354	  0.047778	  0.185210	  0.368133	  0.390382	  0.202785	  0.046395	  0.424799	  0.217971	  0.554550	  2.244184	  1.399620	
1.8945	  0.498037	  0.329767	  0.054491	  0.184985	  0.134650	  0.047679	  0.183819	  0.366283	  0.391382	  0.204866	  0.046814	  0.424254	  0.218833	  0.553886	  2.258258	  1.397435	
1.895	  0.499199	  0.331217	  0.054861	  0.184716	  0.132971	  0.047580	  0.182500	  0.364512	  0.392426	  0.206955	  0.047228	  0.423641	  0.219713	  0.553281	  2.272485	  1.395071	
1.8955	  0.500291	  0.332645	  0.055229	  0.184468	  0.131317	  0.047481	  0.181255	  0.362820	  0.393514	  0.209049	  0.047638	  0.422962	  0.220612	  0.552736	  2.286854	  1.392530	
1.896	  0.501312	  0.334052	  0.055595	  0.184240	  0.129688	  0.047382	  0.180081	  0.361206	  0.394648	  0.211150	  0.048044	  0.422217	  0.221528	  0.552253	  2.301356	  1.389815	
1.8965	  0.502262	  0.335437	  0.055959	  0.184032	  0.128084	  0.047283	  0.178980	  0.359671	  0.395826	  0.213256	  0.048445	  0.421404	  0.222461	  0.551833	  2.315978	  1.386929	
1.897	  0.503139	  0.336800	  0.056320	  0.183845	  0.126506	  0.047185	  0.177951	  0.358214	  0.397050	  0.215367	  0.048842	  0.420527	  0.223409	  0.551477	  2.330711	  1.383874	
1.8975	  0.503943	  0.338139	  0.056679	  0.183680	  0.124952	  0.047087	  0.176993	  0.356836	  0.398319	  0.217483	  0.049233	  0.419583	  0.224372	  0.551187	  2.345543	  1.380651	
1.898	  0.504673	  0.339454	  0.057036	  0.183535	  0.123424	  0.046990	  0.176107	  0.355537	  0.399634	  0.219602	  0.049621	  0.418575	  0.225349	  0.550965	  2.360463	  1.377265	
1.8985	  0.505328	  0.340745	  0.057391	  0.183411	  0.121921	  0.046894	  0.175291	  0.354315	  0.400994	  0.221724	  0.050003	  0.417501	  0.226340	  0.550810	  2.375460	  1.373717	
1.899	  0.505908	  0.342011	  0.057744	  0.183308	  0.120442	  0.046800	  0.174545	  0.353171	  0.402399	  0.223849	  0.050380	  0.416364	  0.227342	  0.550725	  2.390525	  1.370010	
1.8995	  0.506413	  0.343253	  0.058094	  0.183227	  0.118989	  0.046707	  0.173869	  0.352103	  0.403849	  0.225975	  0.050752	  0.415162	  0.228356	  0.550709	  2.405645	  1.366145	
1.9	  0.506844	  0.344470	  0.058443	  0.183168	  0.117560	  0.046616	  0.173263	  0.351113	  0.405344	  0.228103	  0.051119	  0.413898	  0.229380	  0.550765	  2.420811	  1.362126	
1.9005	  0.507200	  0.345663	  0.058789	  0.183131	  0.116156	  0.046528	  0.172725	  0.350198	  0.406884	  0.230231	  0.051481	  0.412571	  0.230414	  0.550893	  2.436011	  1.357953	
1.901	  0.507483	  0.346832	  0.059133	  0.183115	  0.114776	  0.046442	  0.172255	  0.349358	  0.408468	  0.232359	  0.051838	  0.411183	  0.231456	  0.551093	  2.451235	  1.353630	
1.9015	  0.507693	  0.347976	  0.059476	  0.183122	  0.113420	  0.046359	  0.171853	  0.348593	  0.410097	  0.234486	  0.052189	  0.409735	  0.232506	  0.551365	  2.466470	  1.349159	
1.902	  0.507830	  0.349096	  0.059816	  0.183151	  0.112089	  0.046279	  0.171518	  0.347901	  0.411769	  0.236611	  0.052536	  0.408227	  0.233563	  0.551712	  2.481706	  1.344542	
1.9025	  0.507895	  0.350192	  0.060154	  0.183203	  0.110781	  0.046202	  0.171248	  0.347282	  0.413484	  0.238733	  0.052876	  0.406662	  0.234625	  0.552131	  2.496932	  1.339781	
1.903	  0.507887	  0.351263	  0.060489	  0.183277	  0.109497	  0.046129	  0.171044	  0.346735	  0.415242	  0.240852	  0.053211	  0.405040	  0.235692	  0.552625	  2.512137	  1.334880	
1.9035	  0.507808	  0.352310	  0.060823	  0.183373	  0.108236	  0.046060	  0.170905	  0.346258	  0.417041	  0.242966	  0.053540	  0.403363	  0.236763	  0.553192	  2.527313	  1.329840	
1.904	  0.507658	  0.353333	  0.061154	  0.183493	  0.106999	  0.045994	  0.170829	  0.345850	  0.418882	  0.245076	  0.053864	  0.401631	  0.237836	  0.553833	  2.542453	  1.324664	
